HIERARCHY
ROOT hip
{
	OFFSET 0.000000 0.000000 0.000000 
	CHANNELS 6 Xposition Yposition Zposition Xrotation Zrotation Yrotation
	JOINT abdomen
	{
		OFFSET 0.000000 3.402643 0.000000 
		CHANNELS 3 Xrotation Zrotation Yrotation
		JOINT chest
		{
			OFFSET 0.000000 8.438565 -0.680529 
			CHANNELS 3 Xrotation Zrotation Yrotation
			JOINT neck
			{
				OFFSET 0.000000 10.207942 -0.272212 
				CHANNELS 3 Xrotation Zrotation Yrotation
				JOINT head
				{
					OFFSET 0.000000 3.130431 0.000000 
					CHANNELS 3 Xrotation Zrotation Yrotation
					End Site
					{
						OFFSET 0.000000 3.130435 0.000000 
					}
				}
			}
			JOINT lCollar
			{
				OFFSET 3.470700 6.669187 -0.816635 
				CHANNELS 3 Yrotation Zrotation Xrotation
				JOINT lShldr
				{
					OFFSET 3.198488 0.000000 0.000000 
					CHANNELS 3 Zrotation Yrotation Xrotation
					JOINT lForeArm
					{
						OFFSET 10.139888 0.000000 0.000000 
						CHANNELS 3 Yrotation Zrotation Xrotation
						JOINT lHand
						{
							OFFSET 8.370511 0.000000 0.000000 
							CHANNELS 3 Zrotation Yrotation Xrotation
							End Site
							{
								OFFSET 4.083176 0.000000 0.000000 
							}
						}
					}
				}
			}
			JOINT rCollar
			{
				OFFSET -3.470700 6.669187 -0.816635 
				CHANNELS 3 Yrotation Zrotation Xrotation
				JOINT rShldr
				{
					OFFSET -3.198488 0.000000 0.000000 
					CHANNELS 3 Zrotation Yrotation Xrotation
					JOINT rForeArm
					{
						OFFSET -10.139888 0.000000 0.000000 
						CHANNELS 3 Yrotation Zrotation Xrotation
						JOINT rHand
						{
							OFFSET -8.370511 0.000000 0.000000 
							CHANNELS 3 Zrotation Yrotation Xrotation
							End Site
							{
								OFFSET -4.083176 0.000000 0.000000 
							}
						}
					}
				}
			}
		}
	}
	JOINT lThigh
	{
		OFFSET 5.308129 -1.633274 1.361059 
		CHANNELS 3 Xrotation Zrotation Yrotation
		JOINT lShin
		{
			OFFSET -2.041588 -20.007561 0.000000 
			CHANNELS 3 Xrotation Zrotation Yrotation
			JOINT lFoot
			{
				OFFSET 0.000000 -19.190928 -1.224953 
				CHANNELS 3 Xrotation Yrotation Zrotation
				End Site
				{
					OFFSET 0.000000 -2.449906 4.627600 
				}
			}
		}
	}
	JOINT rThigh
	{
		OFFSET -5.308129 -1.633274 1.361059 
		CHANNELS 3 Xrotation Zrotation Yrotation
		JOINT rShin
		{
			OFFSET 2.041588 -20.007561 0.000000 
			CHANNELS 3 Xrotation Zrotation Yrotation
			JOINT rFoot
			{
				OFFSET 0.000000 -19.190928 -1.224953 
				CHANNELS 3 Xrotation Yrotation Zrotation
				End Site
				{
					OFFSET 0.000000 -2.449906 4.627600 
				}
			}
		}
	}
}
MOTION
Frames: 16
Frame Time: 0.033333
2.300499 41.091030 2.300499 -11.643177 23.283819 80.200111 21.301863 20.006922 -15.328277 6.841012 5.196420 6.923548 -8.590940 5.653659 -0.862891 29.474192 4.032152 -81.648071 1.992188 -2.001953 0.000341 -99.574181 -95.288788 7.664865 -73.638313 -0.508339 8.811419 -59.361488 51.494926 -89.828064 -2.001953 1.992188 0.000000 89.469040 -24.528681 -68.780510 44.169273 0.579841 8.502281 3.016199 -31.646070 -25.448988 -43.383957 3.993457 0.347895 38.456619 -0.812495 -2.943845 35.782337 -1.212937 -1.838025 -59.736320 -4.130309 -0.383444 38.722469 0.756095 2.899702 40.882244 1.329942 1.645417 
2.300499 41.171165 2.300499 -11.579603 23.295441 80.231003 22.365768 18.472399 -15.512895 6.719232 5.309790 7.974750 -8.598520 5.887945 -0.902714 29.133469 6.381198 -82.081535 1.992188 -2.001953 0.000341 -83.565536 -97.779083 -6.132643 -71.450119 -0.514477 8.794001 -57.664364 51.841473 -89.041412 -2.001953 1.992188 0.000000 110.308853 -29.134254 -78.752502 71.308632 0.483351 8.760283 6.188113 -39.739010 -27.303633 -44.737167 3.992662 0.366187 38.729038 -0.777211 -2.984600 36.895500 -1.246958 -1.830429 -60.744991 -4.130536 -0.391202 38.732239 0.755599 2.900020 41.868660 1.355958 1.628564 
2.300499 41.131100 2.300499 -11.601977 23.288805 80.211693 21.826998 19.228968 -15.428356 6.768721 5.248616 7.444283 -8.602274 5.995321 -0.922127 29.681396 5.701565 -82.094017 1.992188 -2.001953 0.000341 -90.261757 -96.425339 -0.743783 -72.614891 -0.507150 8.803346 -58.515980 51.703228 -89.463074 -2.001953 1.992188 0.000000 99.448051 -27.229584 -73.552673 57.737072 0.522172 8.629582 4.524017 -35.715118 -26.291916 -45.897247 3.993717 0.338551 40.262474 -0.724847 -3.033109 36.485241 -1.239531 -1.818375 -60.892891 -4.130749 -0.379026 38.762142 0.761718 2.884104 41.985043 1.378488 1.617308 
2.300499 41.091034 2.300499 -11.625329 23.292770 80.196526 21.278002 19.995678 -15.349889 6.831246 5.196420 6.923548 -8.595134 6.092948 -0.932858 30.229540 5.024354 -82.109207 1.992188 -2.001953 0.000341 -99.994507 -95.179535 7.694122 -73.782234 -0.510160 8.809480 -59.353203 51.550514 -89.866417 -2.001953 1.992188 0.000000 89.030281 -24.504068 -68.943169 44.179031 0.580147 8.501984 3.013675 -31.654072 -25.446283 -47.034657 3.993350 0.348461 41.804104 -0.637285 -3.116995 36.066048 -1.211606 -1.833284 -61.048416 -4.130291 -0.395911 38.800922 0.755456 2.893652 42.102379 1.379888 1.606157 
2.300499 41.050961 2.300499 -11.656756 23.287775 80.184937 20.751713 20.773464 -15.261901 6.894779 5.143671 6.403697 -8.595453 6.112477 -0.932858 30.599770 4.131195 -82.047455 1.992188 -2.001953 0.000341 -114.466003 -94.216064 20.906708 -74.794250 -0.509246 8.825900 -60.193188 51.347588 -90.228493 -2.001953 1.992188 0.000000 79.184341 -21.127874 -64.835999 30.613697 0.677593 8.391707 1.630546 -27.576078 -24.762987 -48.242496 3.992906 0.333252 43.824131 -0.533047 -3.206210 35.255207 -1.190652 -1.864094 -60.989826 -4.130456 -0.393115 38.829983 0.745849 2.901613 42.005302 1.362921 1.617056 
2.300499 41.010899 2.300499 -11.696262 23.273834 80.176956 20.226835 21.541618 -15.182290 6.969091 5.090382 5.882975 -8.596823 6.131988 -0.942567 30.979023 3.239542 -81.982849 1.992188 -2.001953 0.000341 -134.910187 -93.626602 40.084316 -75.819023 -0.520062 8.835514 -61.027134 51.140491 -90.587593 -2.001953 1.992188 0.000000 69.837616 -17.154005 -61.494774 17.043215 0.782028 8.308012 0.348544 -23.478397 -24.217440 -49.468121 3.993510 0.338516 45.862255 -0.423058 -3.320160 34.435432 -1.154759 -1.884503 -60.941715 -4.130613 -0.381353 38.869392 0.745684 2.893790 41.936829 1.366159 1.599999 
2.300499 41.050968 2.300499 -11.696262 23.273834 80.176956 20.751713 20.773464 -15.261901 6.894779 5.143671 6.403697 -8.594975 6.083184 -0.932859 30.536922 4.048563 -82.005669 1.992188 -2.001953 0.000341 -113.440971 -94.242699 19.970499 -74.713013 -0.512917 8.823776 -60.127453 51.378948 -90.187469 -2.001953 1.992188 0.000000 79.131744 -21.385305 -64.949677 30.574663 0.676127 8.402338 1.630546 -27.576078 -24.762987 -50.526848 4.002682 0.333631 47.910522 -0.309426 -3.410487 33.439564 -1.119399 -1.907406 -60.744991 -4.130537 -0.391202 38.908066 0.745730 2.905420 41.692146 1.369722 1.613290 
2.300499 41.091038 2.300499 -11.696262 23.273834 80.176956 21.287767 19.995680 -15.349889 6.831246 5.196420 6.923548 -8.602750 6.024615 -0.922123 30.104267 4.857780 -82.029037 1.992188 -2.001953 0.000341 -98.662933 -95.255386 6.536203 -73.613777 -0.507079 8.806734 -59.209225 51.621822 -89.775520 -2.001953 1.992188 0.000000 88.965065 -25.003857 -69.216141 44.110409 0.587768 8.504062 3.013675 -31.654072 -25.446283 -51.585972 4.003036 0.331783 49.988823 -0.198707 -3.471201 32.442013 -1.117396 -1.913530 -60.548977 -4.130474 -0.391638 38.936626 0.745765 2.926253 41.458736 1.340608 1.626495 
2.300499 41.131100 2.300499 -11.696262 23.273834 80.176956 21.826998 19.228968 -15.428356 6.768721 5.248616 7.444283 -8.600466 5.946516 -0.912421 29.587332 5.574169 -82.040146 1.992188 -2.001953 0.000341 -88.978111 -96.584732 -1.829177 -72.380486 -0.509253 8.796712 -58.291466 51.783875 -89.313301 -2.001953 1.992188 0.000000 99.389183 -27.846594 -73.989159 57.668755 0.520579 8.632105 4.524017 -35.715118 -26.291916 -52.233097 4.003195 0.331811 51.568165 -0.111251 -3.544972 31.486540 -1.057447 -1.942177 -60.246258 -4.130727 -0.377565 38.966389 0.761745 2.913624 41.136646 1.327619 1.631939 
2.300499 41.171162 2.300499 -11.696262 23.273834 80.176956 22.365768 18.472399 -15.512895 6.719232 5.309790 7.974750 -8.597054 5.858668 -0.893001 29.060017 6.289583 -82.059174 1.992188 -2.001953 0.000341 -82.419014 -98.019913 -7.065233 -71.144371 -0.510798 8.788400 -57.370209 51.948299 -88.828400 -2.001953 1.992188 0.000000 110.293785 -29.859518 -79.388412 71.220795 0.482119 8.773681 6.188113 -39.739010 -27.303633 -52.870979 3.992832 0.336220 53.156750 -0.006731 -3.618701 30.539343 -1.027422 -1.953725 -59.951153 -4.130307 -0.393295 38.985779 0.746308 2.919150 40.823490 1.333183 1.637267 
2.300499 41.146160 2.300499 -11.696262 23.273834 80.176956 22.159092 18.750473 -15.476244 6.737485 5.292938 7.777580 -8.594387 5.751274 -0.883289 29.048231 5.733763 -81.912575 1.992188 -2.001953 0.000341 -84.429108 -97.465027 -5.412007 -71.623276 -0.509207 8.790282 -57.713417 51.896252 -89.017090 -2.001953 1.992188 0.000000 106.343658 -29.211500 -77.354065 66.192986 0.500125 8.714374 5.548224 -38.262527 -26.902929 -52.861206 3.992858 0.335774 53.771790 0.012765 -3.628279 29.875530 -1.001218 -1.970529 -59.610073 -4.130681 -0.367321 39.016052 0.751952 2.893404 40.461632 1.331787 1.661734 
2.300499 41.121159 2.300499 -11.696262 23.273834 80.176956 21.959192 19.027773 -15.452332 6.754568 5.266327 7.581314 -8.590940 5.653659 -0.862891 29.034346 5.174069 -81.774887 1.992188 -2.001953 0.000341 -86.759193 -96.926498 -3.433424 -72.103264 -0.517371 8.792555 -58.054886 51.843121 -89.204735 -2.001953 1.992188 0.000000 102.451904 -28.440355 -75.390678 61.164650 0.510287 8.666834 4.928624 -36.759014 -26.525620 -52.851433 3.992880 0.335328 54.405586 0.051732 -3.648421 29.230877 -0.983474 -1.978203 -59.265408 -4.130244 -0.390130 39.034729 0.736010 2.918133 40.100613 1.313429 1.676850 
2.300499 41.106098 2.300499 -11.696262 23.273834 80.176956 21.522005 19.651245 -15.378288 6.806499 5.222979 7.148990 -8.588658 5.565793 -0.853181 29.199326 4.258787 -81.606812 1.992188 -2.001953 0.000341 -93.465965 -95.824120 2.335693 -73.076332 -0.514507 8.801033 -58.805573 51.693527 -89.566422 -2.001953 1.992188 0.000000 93.968010 -26.331551 -71.237526 50.148121 0.552037 8.555215 3.668517 -33.464169 -25.798315 -50.095875 3.993763 0.337240 51.480350 -0.111159 -3.540801 29.426167 -0.989942 -1.975982 -58.511944 -4.130499 -0.374706 38.976604 0.755602 2.902378 39.407639 1.285520 1.688091 
2.300499 41.091030 2.300499 -11.696262 23.273834 80.176956 21.083750 20.284651 -15.306166 6.859126 5.179245 6.717554 -8.586550 5.487690 -0.843466 29.361279 3.340865 -81.444748 1.992188 -2.001953 0.000341 -102.999344 -94.821457 10.951296 -74.059387 -0.513048 8.804883 -59.553402 51.550404 -89.926445 -2.001953 1.992188 0.000000 85.832375 -23.716936 -67.542992 39.107269 0.619958 8.453569 2.488571 -30.145607 -25.179361 -47.340000 3.993302 0.332950 48.535809 -0.289198 -3.412386 29.621021 -1.003892 -1.974584 -57.768188 -4.130708 -0.359975 38.918522 0.771512 2.885380 38.724194 1.263084 1.698939 
2.300499 41.050961 2.300499 -11.696262 23.273834 80.176956 20.653219 20.917616 -15.245072 6.914207 5.134939 6.305563 -8.585184 5.458410 -0.833745 29.585003 2.512459 -81.330406 1.992188 -2.001953 0.000341 -116.299911 -94.096718 23.221560 -74.939217 -0.511471 8.821335 -60.295292 51.342762 -90.263245 -2.001953 1.992188 0.000000 78.015053 -20.631989 -64.246040 28.071943 0.698161 8.377638 1.390926 -26.820227 -24.657116 -44.680676 3.992932 0.335071 43.365490 -0.572140 -3.188911 32.140560 -1.086318 -1.906254 -58.256554 -4.130562 -0.382067 38.820438 0.755471 2.894621 39.310226 1.278856 1.680397 
2.300499 41.010899 2.300499 -11.696262 23.273834 80.176956 20.226835 21.541618 -15.182290 6.969091 5.090382 5.882975 -8.584756 5.429116 -0.833746 29.797123 1.682834 -81.222862 1.992188 -2.001953 0.000341 -133.912842 -93.653069 39.801109 -75.819023 -0.520062 8.835514 -61.027134 51.140491 -90.587593 -2.001953 1.992188 0.000000 70.547607 -17.170290 -61.491707 17.043215 0.782028 8.308012 0.348544 -23.478397 -24.217440 -42.020630 3.993679 0.329862 38.182823 -0.841878 -2.939771 34.670612 -1.146421 -1.880259 -58.746349 -4.130452 -0.385357 38.732239 0.755595 2.900018 39.895943 1.301595 1.661795 
